<svg width="100" height="32" viewBox="0 0 100 32" fill="none" xmlns="http://www.w3.org/2000/svg">
<path d="M51.3952 8.4998C50.613 8.01148 49.766 7.6312 48.8715 7.36759C47.9683 7.09967 47.0176 6.9657 46.0539 6.9657C44.7532 6.9657 43.5216 7.19906 42.3981 7.65713C41.2615 8.12384 40.259 8.77204 39.4163 9.58447C38.5693 10.3969 37.8952 11.3649 37.4112 12.4668C36.9358 13.5645 36.6938 14.7745 36.6938 16.0536C36.6938 17.3241 36.9358 18.5255 37.4112 19.6231C37.8952 20.7294 38.565 21.6974 39.4033 22.5055C40.2374 23.3179 41.2399 23.9704 42.3851 24.4371C43.5216 24.8952 44.7575 25.1286 46.0539 25.1286C46.9874 25.1286 47.9165 24.9989 48.8067 24.7353C49.6839 24.4847 50.5266 24.1087 51.3087 23.6161C52.0736 23.1364 52.7434 22.5487 53.3052 21.8702C53.3873 21.7708 53.3787 21.6282 53.2879 21.5375L50.963 19.2342C50.9155 19.1866 50.855 19.1607 50.7858 19.1607C50.7815 19.1607 50.7815 19.1607 50.7772 19.1607C50.7081 19.165 50.6432 19.1953 50.5957 19.2471C50.0166 19.9213 49.3425 20.4442 48.5949 20.8028C47.8473 21.1615 47.0349 21.343 46.1793 21.343C45.4101 21.343 44.697 21.2091 44.0575 20.9454C43.4093 20.6775 42.8388 20.3059 42.3635 19.8348C41.8752 19.3552 41.5079 18.8063 41.2399 18.1538C40.9806 17.5099 40.8467 16.8055 40.8467 16.0536C40.8467 15.293 40.9806 14.58 41.2399 13.9361C41.5079 13.2793 41.8709 12.7261 42.3419 12.2508C42.8043 11.7797 43.3617 11.3995 44.0013 11.1315C44.6409 10.8593 45.3323 10.721 46.0539 10.721C46.9398 10.721 47.7782 10.9111 48.556 11.2871C49.3295 11.6631 50.0253 12.2248 50.6173 12.9595C50.6605 13.0157 50.7253 13.0459 50.7988 13.0502C50.8031 13.0502 50.8075 13.0502 50.8118 13.0502C50.8766 13.0502 50.9414 13.0243 50.989 12.9768L53.3916 10.6C53.4824 10.5093 53.491 10.3666 53.4132 10.2673C52.8601 9.58879 52.1816 8.99244 51.3952 8.4998Z" fill="#1D3D64"/>
<path d="M65.2876 12.6864C64.2894 11.8221 62.8892 11.3856 61.1218 11.3856C60.1841 11.3856 59.229 11.5023 58.2783 11.74C57.3579 11.969 56.3683 12.3234 55.3355 12.7858C55.275 12.8117 55.2275 12.8635 55.2015 12.9284C55.1799 12.9932 55.1842 13.0623 55.2145 13.1228L56.4418 15.599C56.485 15.6854 56.5757 15.7373 56.6665 15.7373C56.701 15.7373 56.7356 15.7286 56.7659 15.7157C57.5567 15.3656 58.2654 15.102 58.8833 14.9292C59.4797 14.765 60.0415 14.6785 60.5557 14.6785C61.3724 14.6785 61.9947 14.8514 62.4053 15.1841C62.7985 15.5082 63.0016 16.0052 63.0016 16.6577V17.2498C62.0941 16.9689 61.1261 16.8263 60.1192 16.8263C58.4512 16.8263 57.1202 17.1849 56.1609 17.898C55.1756 18.6197 54.6743 19.6482 54.6743 20.9575C54.6743 21.7743 54.8861 22.5046 55.3009 23.1312C55.7158 23.7578 56.3035 24.2548 57.0424 24.6005C57.7771 24.9505 58.6284 25.1277 59.5748 25.1277C60.3224 25.1277 61.0181 25.0326 61.6274 24.8468C62.1157 24.7042 62.5651 24.5011 62.9973 24.2245V24.8641C62.9973 25.0024 63.1096 25.1147 63.2479 25.1147H66.5538C66.6921 25.1147 66.8044 25.0024 66.8044 24.8641V16.3596C66.8087 14.7952 66.2945 13.555 65.2876 12.6864ZM58.3604 20.8841C58.3604 20.4779 58.5333 20.1624 58.892 19.929C59.2852 19.6698 59.847 19.5358 60.5557 19.5358C61.0267 19.5358 61.4891 19.579 61.9342 19.6568C62.267 19.7173 62.5954 19.8037 62.9065 19.9161C62.9627 19.9377 63.0016 19.9895 63.0016 20.05V21.4372C63.0016 21.4847 62.9757 21.5323 62.9368 21.5582C62.6256 21.7613 62.2799 21.9212 61.9083 22.0292C61.4502 22.1632 60.9533 22.228 60.4304 22.228C59.7865 22.228 59.2636 22.0984 58.879 21.8391C58.5247 21.6014 58.3604 21.2989 58.3604 20.8841Z" fill="#1D3D64"/>
<path d="M77.803 11.3791H74.4021V7.89603C74.4021 7.81824 74.3675 7.74909 74.307 7.70156C74.2638 7.66699 74.2076 7.64539 74.1514 7.64539C74.1341 7.64539 74.1125 7.64538 74.0952 7.6497L70.7375 8.40595C70.6252 8.43188 70.5431 8.53127 70.5431 8.64795V11.3748H68.175C68.0367 11.3748 67.9243 11.4871 67.9243 11.6254V14.417C67.9243 14.5553 68.0367 14.6677 68.175 14.6677H70.5431V21.072C70.5431 22.3771 70.9406 23.3926 71.7185 24.0883C72.492 24.7754 73.6285 25.1211 75.1021 25.1211C75.4651 25.1211 75.9016 25.0866 76.4461 25.0174C76.9949 24.9483 77.4313 24.8532 77.7814 24.7365C77.8808 24.702 77.9499 24.6069 77.9499 24.4989V21.7332C77.9499 21.6511 77.911 21.5776 77.8462 21.5301C77.803 21.4998 77.7511 21.4825 77.7036 21.4825C77.6777 21.4825 77.6474 21.4868 77.6215 21.4955C77.3103 21.6078 77.0295 21.677 76.7745 21.7202C76.5195 21.7591 76.23 21.7764 75.9145 21.7764C75.3355 21.7764 74.9293 21.6727 74.7175 21.4652C74.5058 21.2578 74.4021 20.8948 74.4021 20.3806V14.672H77.803C77.9413 14.672 78.0536 14.5596 78.0536 14.4213V11.6297C78.0493 11.4914 77.9369 11.3791 77.803 11.3791Z" fill="#1D3D64"/>
<path d="M83.1967 11.3817H79.839C79.7007 11.3817 79.5884 11.4941 79.5884 11.6324V24.8688C79.5884 25.0071 79.7007 25.1195 79.839 25.1195H83.1967C83.335 25.1195 83.4474 25.0071 83.4474 24.8688V11.6324C83.4474 11.4941 83.335 11.3817 83.1967 11.3817Z" fill="#1D3D64"/>
<path d="M81.5108 5.47937C80.9231 5.47937 80.4088 5.69112 79.9897 6.10597C79.5662 6.52083 79.3501 7.03508 79.3501 7.6444C79.3501 8.23211 79.5662 8.74636 79.9897 9.16985C80.4132 9.59335 80.9274 9.80942 81.5151 9.80942C82.1201 9.80942 82.6387 9.59335 83.0535 9.16985C83.464 8.74636 83.6758 8.23643 83.6758 7.64872C83.6758 7.04372 83.4684 6.52515 83.0535 6.11462C82.6343 5.69112 82.1158 5.47937 81.5108 5.47937Z" fill="#1D3D64"/>
<path d="M98.1327 14.7779C97.519 13.7408 96.6677 12.9068 95.5917 12.2974C94.5157 11.6924 93.31 11.3856 92.0007 11.3856C90.6956 11.3856 89.4856 11.6924 88.4139 12.2974C87.3379 12.9111 86.4823 13.7451 85.8729 14.7779C85.255 15.8194 84.9438 16.9948 84.9438 18.2739C84.9438 19.5531 85.2636 20.7242 85.8902 21.7613C86.5082 22.7855 87.3638 23.6152 88.4269 24.2245C89.4899 24.8295 90.6956 25.1363 92.005 25.1363C93.3316 25.1363 94.5459 24.8295 95.609 24.2245C96.6721 23.6152 97.519 22.7855 98.137 21.7613C98.755 20.7285 99.0661 19.5531 99.0661 18.2739C99.0618 16.9905 98.7463 15.8151 98.1327 14.7779ZM93.6687 21.2687C93.1804 21.5669 92.6186 21.7181 92.0007 21.7181C91.4 21.7181 90.8425 21.5668 90.3456 21.2643C89.8443 20.9619 89.4467 20.5427 89.1572 20.0198C88.8677 19.4926 88.725 18.9178 88.725 18.2696C88.725 17.6084 88.872 17.0164 89.1572 16.5065C89.4467 15.9879 89.8486 15.5687 90.3499 15.2619C90.8468 14.9508 91.4043 14.7952 92.005 14.7952C92.6229 14.7952 93.1847 14.9508 93.673 15.2619C94.1613 15.5644 94.5632 15.9836 94.8657 16.5065C95.1596 17.0251 95.3108 17.6214 95.3108 18.2696C95.3108 18.9092 95.1639 19.4796 94.8657 20.0198C94.5546 20.5556 94.1657 20.9662 93.6687 21.2687Z" fill="#1D3D64"/>
<path d="M29.2915 24.9388C28.4229 26.2223 27.3771 27.3675 26.1888 28.3398C25.9943 28.5083 25.7998 28.6639 25.5924 28.8108C25.5492 28.8497 25.4973 28.8843 25.4541 28.9232L25.277 29.0485C25.0566 29.1997 24.8448 29.3423 24.6331 29.4806C22.0446 31.14 19.0887 32 16.0119 32C15.6489 32 15.2859 31.9957 14.9229 31.9697C6.88518 31.4296 0.627835 25.224 0.0444493 17.1905C-0.33151 12.0481 1.69089 7.17353 5.60174 3.83308C8.48841 1.36556 12.1789 0 15.9946 0C18.635 0 21.2624 0.665494 23.583 1.9187C24.4516 2.38541 25.2899 2.9472 26.0634 3.56948C26.2277 3.69912 26.2363 3.94544 26.0851 4.08805L21.3402 8.53045C21.1933 8.66441 20.9772 8.69466 20.8043 8.59527C19.348 7.74828 17.6886 7.16921 15.9903 7.16921C14.4303 7.16921 13.7432 7.3896 12.4079 8.17178C12.1745 8.30142 11.9196 8.37056 11.6689 8.37056C11.3751 8.37056 11.0942 8.28413 10.8479 8.1156L7.5766 5.13815C7.41671 4.99554 7.16608 5.1079 7.16608 5.31965V16.0411C7.19633 20.8897 11.1633 24.8351 16.0119 24.8351C17.4596 24.8351 18.8943 24.4851 20.1648 23.8023L20.2858 23.7332C20.3592 23.6943 20.437 23.651 20.5105 23.6078L20.6055 23.5517C20.6747 23.5084 20.7482 23.4652 20.8259 23.409L20.8778 23.3702L20.934 23.3399C20.9599 23.3269 20.9858 23.314 21.0031 23.2967C21.0852 23.2405 21.1284 23.2103 21.1803 23.1714L21.2797 23.0979L21.3056 23.0849L21.3445 23.0547C21.4396 22.9942 21.526 22.9164 21.6124 22.8429L21.6513 22.8127C22.3082 22.2725 22.9088 21.6113 23.3885 20.9156C24.0713 19.9001 25.2035 19.2994 26.4092 19.2994C26.7678 19.2994 27.1179 19.3513 27.4506 19.455C28.76 19.8698 29.7064 20.9415 29.9268 22.3503C30.0521 23.2492 29.8058 24.1739 29.2915 24.9388Z" fill="#1D3D64"/>
</svg>
